<svg xmlns="http://www.w3.org/2000/svg" width="357.3" height="281" fill="none"><path fill="#0d0d0d" d="M303 267c-51-6-51-6-83-5h-32l-63 7a1419 1419 0 0 0-92 12L22 173 12 66l-3-1C3 63-1 55 0 46c0-5 1-6 6-9 5-4 5-4 11-3 5 0 7 1 9 3 3 3 3 3 4 12 0 8 0 10-2 12l-2 2 15 19c22 27 58 67 59 66l4-15a1924 1924 0 0 1 13-64l-4-8c-3-3-7-11-9-16l-3-10 6-7c6-6 6-7 13-8 9-3 13-1 18 5 5 8 5 11 1 23l-4 12 7 21c7 19 7 19 27 52 20 32 25 39 26 36l3-14 14-60 10-48c0-2-2-3-5-6l-5-7 1-6c1-6 2-7 7-11 4-2 6-3 10-2 6 0 8 1 12 7 4 7 5 15 3 19l-6 5-5 3c0 5 48 117 49 117 4 0 5-5 18-63l13-59-6-4-5-3-1-10-1-10 6-8 6-8 8-1c8 0 8 0 13 3s6 4 7 11c2 8 2 15 0 18l-8 6-6 4 8 34 8 34 8 81c7 80 7 81 5 81z"/></svg>
