<svg viewBox="0 0 111.73611 127.18171" width="223.47223" height="254.44489" xml:space="preserve" xmlns="http://www.w3.org/2000/svg"><path style="fill:#000;paint-order:stroke fill markers" d="m10.4 127.19744-2.3-.4-1-.5-6-9-.5-4.1-.6-4.2 1.1-1.8 3-5.2 9.8-1h.1l10.536116-10.222437 8.9582-9.0723 6.749996-9.516046.417837-3.011751-3.461533-6.578803-5.3645-4.3211-14-13 8.8-9.8 6.6 7.2 5.1875 4.8875 2.7125 2.1125.6.6 16.6-13 10.1-11.1375 4.1-5.3625 2.7-2.8 2.2-2.3.2.2.2.2.1-.2.2-.2 3.2 3.1 4.5 4.3 1.5 1.1 23.700004.6h.3v.5l.2.1h.2l-3.2 11.9-1.625 5.8125-1.775 5.5875-10.400004 11.4-5.1 6.1-15.4 16.7 7.6 8.5 5.963 5.875 2.737 2.125-11.4 7.799997-11.2-11.399997-3.3-4-7.565344-6.40626-1.969312.620458L38.136116 101.175 25.4 112.79744v4.4l-1.2 3.7-1.6 2.7-1.7125 1.712-2.9875.888-1.2.2-6.4.8h.1M97.536116 11.575003l-6.3-.7.8-10.89999995 9.500004 1.60000005 2.3 10.6999999-6.300004-.7"/></svg>
