<svg xmlns="http://www.w3.org/2000/svg" xml:space="preserve" viewBox="0 0 466 465"><defs><clipPath id="a" clipPathUnits="userSpaceOnUse"><path d="M23 14h476v475H23Zm247 58c-28 0-55 6-81 20a164 164 0 0 0-70 224c45 81 147 111 229 68 83-43 114-144 70-224l-13 7c40 73 12 164-64 204-75 39-168 11-208-62-41-74-12-165 63-204s169-11 209 62l13-7c-30-56-88-87-148-88Zm72 249 34 6v-52l-2-52-4-22-3-22 4-3 5-3c1-2 2-6 1-12-1-4-1-5-4-7s-3-2-8-2h-6l-4 5-4 5v12l4 3 3 2-11 38c-10 36-11 39-14 39l-26-77 3-1 4-3c2-3 1-8-1-13-2-4-3-4-7-5l-7 1c-3 3-4 3-5 7l-1 4 3 4 3 4-8 31-11 37-3 9c-1 2-4-3-15-24-11-22-11-22-15-34l-4-14 3-7c3-8 3-10 1-15-3-4-6-6-12-4-4 0-4 1-8 5l-4 4 1 6 5 11 2 5a1231 1231 0 0 0-11 40l-3 10-35-45-8-12 1-2 2-7-2-8-6-2c-4-1-4-1-7 1-4 2-4 2-4 6-1 5 1 11 5 12l1 1 2 69 3 69a908 908 0 0 1 59-4l41-2 20 2c21 0 21 0 53 6z" class="powerclip" style="color:#000;fill:#fff;stroke-width:1;-inkscape-stroke:none"/></clipPath></defs><path d="M457 411c-7 0-15 2-21 7-35 26-10 75 31 41 33-27 14-49-10-48ZM290 19c-31 0-67 14-87 25-15 8-64 37-107 46-55 10-87 63-55 90 54 44 56 101 16 143-44 46 1 113 64 106 63-8 89 0 121 32 41 41 132 25 154-33 10-26 24-56 58-68 41-14 53-59 26-91-19-23-21-47 5-95 22-40 5-84-56-81-45 3-64-27-97-59a59 59 0 0 0-42-15z" clip-path="url(#a)" transform="translate(-28 -19)" fill="#ba1f33"/></svg>
