<?xml version="1.0" encoding="UTF-8" standalone="no"?>
<!-- Created with Inkscape (http://www.inkscape.org/) -->

<svg
   width="1500mm"
   height="1500mm"
   viewBox="0 0 1500 1500"
   version="1.1"
   id="svg1"
   xml:space="preserve"
   inkscape:version="1.3.2 (091e20e, 2023-11-25)"
   sodipodi:docname="social-image.svg"
   xmlns:inkscape="http://www.inkscape.org/namespaces/inkscape"
   xmlns:sodipodi="http://sodipodi.sourceforge.net/DTD/sodipodi-0.dtd"
   xmlns="http://www.w3.org/2000/svg"
   xmlns:svg="http://www.w3.org/2000/svg"><sodipodi:namedview
     id="namedview1"
     pagecolor="#505050"
     bordercolor="#eeeeee"
     borderopacity="1"
     inkscape:showpageshadow="0"
     inkscape:pageopacity="0"
     inkscape:pagecheckerboard="0"
     inkscape:deskcolor="#505050"
     inkscape:document-units="mm"
     inkscape:zoom="0.073212926"
     inkscape:cx="3694.7028"
     inkscape:cy="3585.4324"
     inkscape:window-width="1920"
     inkscape:window-height="1052"
     inkscape:window-x="1"
     inkscape:window-y="0"
     inkscape:window-maximized="0"
     inkscape:current-layer="layer1" /><defs
     id="defs1" /><g
     inkscape:label="Layer 1"
     inkscape:groupmode="layer"
     id="layer1"><rect
       style="fill:#ab3038;fill-opacity:1;stroke-width:0;paint-order:stroke fill markers"
       id="rect1"
       width="1500"
       height="1500"
       x="0"
       y="0" /><g
       style="fill:#fafafa;fill-opacity:1"
       id="g1"
       transform="matrix(3.5226246,0,0,3.5226246,121.21589,255.07124)"><path
         fill="currentColor"
         d="m 303,267 c -51,-6 -51,-6 -83,-5 h -32 l -63,7 A 1419,1419 0 0 0 33,281 L 22,173 12,66 9,65 C 3,63 -1,55 0,46 c 0,-5 1,-6 6,-9 5,-4 5,-4 11,-3 5,0 7,1 9,3 3,3 3,3 4,12 0,8 0,10 -2,12 l -2,2 15,19 c 22,27 58,67 59,66 l 4,-15 a 1924,1924 0 0 1 13,-64 l -4,-8 c -3,-3 -7,-11 -9,-16 l -3,-10 6,-7 c 6,-6 6,-7 13,-8 9,-3 13,-1 18,5 5,8 5,11 1,23 l -4,12 7,21 c 7,19 7,19 27,52 20,32 25,39 26,36 l 3,-14 14,-60 10,-48 c 0,-2 -2,-3 -5,-6 l -5,-7 1,-6 c 1,-6 2,-7 7,-11 4,-2 6,-3 10,-2 6,0 8,1 12,7 4,7 5,15 3,19 l -6,5 -5,3 c 0,5 48,117 49,117 4,0 5,-5 18,-63 l 13,-59 -6,-4 -5,-3 -1,-10 -1,-10 6,-8 6,-8 8,-1 c 8,0 8,0 13,3 5,3 6,4 7,11 2,8 2,15 0,18 l -8,6 -6,4 8,34 8,34 8,81 c 7,80 7,81 5,81 z"
         id="path1"
         style="fill:#fafafa;fill-opacity:1" /></g></g></svg>
