<svg xmlns="http://www.w3.org/2000/svg" fill="none" viewBox="0 0 64 64"><path fill="currentColor" d="M52.76 53.1c-8.5-1-8.5-1-13.84-.84h-5.34l-10.5 1.17a236.63 236.63 0 0 0-15.34 2L5.9 37.42 4.23 19.58l-.5-.17c-1-.33-1.66-1.67-1.5-3.17 0-.83.17-1 1-1.5.84-.67.84-.67 1.84-.5.83 0 1.17.17 1.5.5.5.5.5.5.67 2 0 1.34 0 1.67-.34 2l-.33.34 2.5 3.16c3.67 4.5 9.67 11.18 9.84 11.01l.67-2.5a320.85 320.85 0 0 1 2.16-10.67l-.66-1.34c-.5-.5-1.17-1.83-1.5-2.67l-.5-1.66 1-1.17c1-1 1-1.17 2.16-1.33 1.5-.5 2.17-.17 3 .83.84 1.33.84 1.83.17 3.83l-.66 2 1.16 3.5c1.17 3.18 1.17 3.18 4.5 8.68 3.34 5.34 4.17 6.5 4.34 6l.5-2.33 2.34-10 1.66-8.01c0-.34-.33-.5-.83-1l-.83-1.17.16-1c.17-1 .34-1.17 1.17-1.83.67-.34 1-.5 1.67-.34 1 0 1.33.17 2 1.17.67 1.17.83 2.5.5 3.17l-1 .83-.83.5c0 .84 8 19.51 8.17 19.51.66 0 .83-.83 3-10.5l2.17-9.84-1-.67-.84-.5-.16-1.67-.17-1.66 1-1.34 1-1.33 1.33-.17c1.34 0 1.34 0 2.17.5.84.5 1 .67 1.17 1.83.33 1.34.33 2.5 0 3l-1.34 1-1 .67 1.34 5.67 1.33 5.67 1.34 13.51c1.16 13.34 1.16 13.5.83 13.5z" style="stroke-width:.16676"/></svg>
